%TF.GenerationSoftware,KiCad,Pcbnew,(5.99.0-8452-g479487ceb1)*%
%TF.CreationDate,2021-02-17T16:52:36+01:00*%
%TF.ProjectId,Hausaufgabe,48617573-6175-4666-9761-62652e6b6963,rev?*%
%TF.SameCoordinates,Original*%
%TF.FileFunction,Legend,Top*%
%TF.FilePolarity,Positive*%
%FSLAX46Y46*%
G04 Gerber Fmt 4.6, Leading zero omitted, Abs format (unit mm)*
G04 Created by KiCad (PCBNEW (5.99.0-8452-g479487ceb1)) date 2021-02-17 16:52:36*
%MOMM*%
%LPD*%
G01*
G04 APERTURE LIST*
%ADD10C,0.200000*%
%ADD11C,0.150000*%
%ADD12C,0.120000*%
G04 APERTURE END LIST*
D10*
X114748095Y-110542380D02*
X114748095Y-109542380D01*
X114986190Y-109542380D01*
X115129047Y-109590000D01*
X115224285Y-109685238D01*
X115271904Y-109780476D01*
X115319523Y-109970952D01*
X115319523Y-110113809D01*
X115271904Y-110304285D01*
X115224285Y-110399523D01*
X115129047Y-110494761D01*
X114986190Y-110542380D01*
X114748095Y-110542380D01*
X115890952Y-110542380D02*
X115795714Y-110494761D01*
X115748095Y-110447142D01*
X115700476Y-110351904D01*
X115700476Y-110066190D01*
X115748095Y-109970952D01*
X115795714Y-109923333D01*
X115890952Y-109875714D01*
X116033809Y-109875714D01*
X116129047Y-109923333D01*
X116176666Y-109970952D01*
X116224285Y-110066190D01*
X116224285Y-110351904D01*
X116176666Y-110447142D01*
X116129047Y-110494761D01*
X116033809Y-110542380D01*
X115890952Y-110542380D01*
X116652857Y-109875714D02*
X116652857Y-110542380D01*
X116652857Y-109970952D02*
X116700476Y-109923333D01*
X116795714Y-109875714D01*
X116938571Y-109875714D01*
X117033809Y-109923333D01*
X117081428Y-110018571D01*
X117081428Y-110542380D01*
X117605238Y-109542380D02*
X117510000Y-109732857D01*
X117890952Y-109875714D02*
X118271904Y-109875714D01*
X118033809Y-109542380D02*
X118033809Y-110399523D01*
X118081428Y-110494761D01*
X118176666Y-110542380D01*
X118271904Y-110542380D01*
X119271904Y-109875714D02*
X119510000Y-110542380D01*
X119748095Y-109875714D02*
X119510000Y-110542380D01*
X119414761Y-110780476D01*
X119367142Y-110828095D01*
X119271904Y-110875714D01*
X120510000Y-110494761D02*
X120414761Y-110542380D01*
X120224285Y-110542380D01*
X120129047Y-110494761D01*
X120081428Y-110399523D01*
X120081428Y-110018571D01*
X120129047Y-109923333D01*
X120224285Y-109875714D01*
X120414761Y-109875714D01*
X120510000Y-109923333D01*
X120557619Y-110018571D01*
X120557619Y-110113809D01*
X120081428Y-110209047D01*
X121367142Y-110494761D02*
X121271904Y-110542380D01*
X121081428Y-110542380D01*
X120986190Y-110494761D01*
X120938571Y-110399523D01*
X120938571Y-110018571D01*
X120986190Y-109923333D01*
X121081428Y-109875714D01*
X121271904Y-109875714D01*
X121367142Y-109923333D01*
X121414761Y-110018571D01*
X121414761Y-110113809D01*
X120938571Y-110209047D01*
X121700476Y-109875714D02*
X122081428Y-109875714D01*
X121843333Y-109542380D02*
X121843333Y-110399523D01*
X121890952Y-110494761D01*
X121986190Y-110542380D01*
X122081428Y-110542380D01*
X123033809Y-109875714D02*
X123414761Y-109875714D01*
X123176666Y-109542380D02*
X123176666Y-110399523D01*
X123224285Y-110494761D01*
X123319523Y-110542380D01*
X123414761Y-110542380D01*
X123748095Y-110542380D02*
X123748095Y-109542380D01*
X124176666Y-110542380D02*
X124176666Y-110018571D01*
X124129047Y-109923333D01*
X124033809Y-109875714D01*
X123890952Y-109875714D01*
X123795714Y-109923333D01*
X123748095Y-109970952D01*
X125033809Y-110494761D02*
X124938571Y-110542380D01*
X124748095Y-110542380D01*
X124652857Y-110494761D01*
X124605238Y-110399523D01*
X124605238Y-110018571D01*
X124652857Y-109923333D01*
X124748095Y-109875714D01*
X124938571Y-109875714D01*
X125033809Y-109923333D01*
X125081428Y-110018571D01*
X125081428Y-110113809D01*
X124605238Y-110209047D01*
X126271904Y-110542380D02*
X126271904Y-109542380D01*
X126652857Y-109542380D01*
X126748095Y-109590000D01*
X126795714Y-109637619D01*
X126843333Y-109732857D01*
X126843333Y-109875714D01*
X126795714Y-109970952D01*
X126748095Y-110018571D01*
X126652857Y-110066190D01*
X126271904Y-110066190D01*
X127843333Y-110447142D02*
X127795714Y-110494761D01*
X127652857Y-110542380D01*
X127557619Y-110542380D01*
X127414761Y-110494761D01*
X127319523Y-110399523D01*
X127271904Y-110304285D01*
X127224285Y-110113809D01*
X127224285Y-109970952D01*
X127271904Y-109780476D01*
X127319523Y-109685238D01*
X127414761Y-109590000D01*
X127557619Y-109542380D01*
X127652857Y-109542380D01*
X127795714Y-109590000D01*
X127843333Y-109637619D01*
X128605238Y-110018571D02*
X128748095Y-110066190D01*
X128795714Y-110113809D01*
X128843333Y-110209047D01*
X128843333Y-110351904D01*
X128795714Y-110447142D01*
X128748095Y-110494761D01*
X128652857Y-110542380D01*
X128271904Y-110542380D01*
X128271904Y-109542380D01*
X128605238Y-109542380D01*
X128700476Y-109590000D01*
X128748095Y-109637619D01*
X128795714Y-109732857D01*
X128795714Y-109828095D01*
X128748095Y-109923333D01*
X128700476Y-109970952D01*
X128605238Y-110018571D01*
X128271904Y-110018571D01*
X129271904Y-110447142D02*
X129319523Y-110494761D01*
X129271904Y-110542380D01*
X129224285Y-110494761D01*
X129271904Y-110447142D01*
X129271904Y-110542380D01*
X129271904Y-110161428D02*
X129224285Y-109590000D01*
X129271904Y-109542380D01*
X129319523Y-109590000D01*
X129271904Y-110161428D01*
X129271904Y-109542380D01*
D11*
%TO.C,R2*%
X126323333Y-68312380D02*
X125990000Y-67836190D01*
X125751904Y-68312380D02*
X125751904Y-67312380D01*
X126132857Y-67312380D01*
X126228095Y-67360000D01*
X126275714Y-67407619D01*
X126323333Y-67502857D01*
X126323333Y-67645714D01*
X126275714Y-67740952D01*
X126228095Y-67788571D01*
X126132857Y-67836190D01*
X125751904Y-67836190D01*
X126704285Y-67407619D02*
X126751904Y-67360000D01*
X126847142Y-67312380D01*
X127085238Y-67312380D01*
X127180476Y-67360000D01*
X127228095Y-67407619D01*
X127275714Y-67502857D01*
X127275714Y-67598095D01*
X127228095Y-67740952D01*
X126656666Y-68312380D01*
X127275714Y-68312380D01*
%TO.C,R1*%
X111783333Y-70052380D02*
X111450000Y-69576190D01*
X111211904Y-70052380D02*
X111211904Y-69052380D01*
X111592857Y-69052380D01*
X111688095Y-69100000D01*
X111735714Y-69147619D01*
X111783333Y-69242857D01*
X111783333Y-69385714D01*
X111735714Y-69480952D01*
X111688095Y-69528571D01*
X111592857Y-69576190D01*
X111211904Y-69576190D01*
X112735714Y-70052380D02*
X112164285Y-70052380D01*
X112450000Y-70052380D02*
X112450000Y-69052380D01*
X112354761Y-69195238D01*
X112259523Y-69290476D01*
X112164285Y-69338095D01*
%TO.C,R4*%
X134243333Y-70092380D02*
X133910000Y-69616190D01*
X133671904Y-70092380D02*
X133671904Y-69092380D01*
X134052857Y-69092380D01*
X134148095Y-69140000D01*
X134195714Y-69187619D01*
X134243333Y-69282857D01*
X134243333Y-69425714D01*
X134195714Y-69520952D01*
X134148095Y-69568571D01*
X134052857Y-69616190D01*
X133671904Y-69616190D01*
X135100476Y-69425714D02*
X135100476Y-70092380D01*
X134862380Y-69044761D02*
X134624285Y-69759047D01*
X135243333Y-69759047D01*
%TO.C,SW1*%
X150246666Y-91594761D02*
X150389523Y-91642380D01*
X150627619Y-91642380D01*
X150722857Y-91594761D01*
X150770476Y-91547142D01*
X150818095Y-91451904D01*
X150818095Y-91356666D01*
X150770476Y-91261428D01*
X150722857Y-91213809D01*
X150627619Y-91166190D01*
X150437142Y-91118571D01*
X150341904Y-91070952D01*
X150294285Y-91023333D01*
X150246666Y-90928095D01*
X150246666Y-90832857D01*
X150294285Y-90737619D01*
X150341904Y-90690000D01*
X150437142Y-90642380D01*
X150675238Y-90642380D01*
X150818095Y-90690000D01*
X151151428Y-90642380D02*
X151389523Y-91642380D01*
X151580000Y-90928095D01*
X151770476Y-91642380D01*
X152008571Y-90642380D01*
X152913333Y-91642380D02*
X152341904Y-91642380D01*
X152627619Y-91642380D02*
X152627619Y-90642380D01*
X152532380Y-90785238D01*
X152437142Y-90880476D01*
X152341904Y-90928095D01*
%TO.C,R7*%
X203373333Y-104262380D02*
X203040000Y-103786190D01*
X202801904Y-104262380D02*
X202801904Y-103262380D01*
X203182857Y-103262380D01*
X203278095Y-103310000D01*
X203325714Y-103357619D01*
X203373333Y-103452857D01*
X203373333Y-103595714D01*
X203325714Y-103690952D01*
X203278095Y-103738571D01*
X203182857Y-103786190D01*
X202801904Y-103786190D01*
X203706666Y-103262380D02*
X204373333Y-103262380D01*
X203944761Y-104262380D01*
%TO.C,R6*%
X168883333Y-109662380D02*
X168550000Y-109186190D01*
X168311904Y-109662380D02*
X168311904Y-108662380D01*
X168692857Y-108662380D01*
X168788095Y-108710000D01*
X168835714Y-108757619D01*
X168883333Y-108852857D01*
X168883333Y-108995714D01*
X168835714Y-109090952D01*
X168788095Y-109138571D01*
X168692857Y-109186190D01*
X168311904Y-109186190D01*
X169740476Y-108662380D02*
X169550000Y-108662380D01*
X169454761Y-108710000D01*
X169407142Y-108757619D01*
X169311904Y-108900476D01*
X169264285Y-109090952D01*
X169264285Y-109471904D01*
X169311904Y-109567142D01*
X169359523Y-109614761D01*
X169454761Y-109662380D01*
X169645238Y-109662380D01*
X169740476Y-109614761D01*
X169788095Y-109567142D01*
X169835714Y-109471904D01*
X169835714Y-109233809D01*
X169788095Y-109138571D01*
X169740476Y-109090952D01*
X169645238Y-109043333D01*
X169454761Y-109043333D01*
X169359523Y-109090952D01*
X169311904Y-109138571D01*
X169264285Y-109233809D01*
%TO.C,D4*%
X166211904Y-117762380D02*
X166211904Y-116762380D01*
X166450000Y-116762380D01*
X166592857Y-116810000D01*
X166688095Y-116905238D01*
X166735714Y-117000476D01*
X166783333Y-117190952D01*
X166783333Y-117333809D01*
X166735714Y-117524285D01*
X166688095Y-117619523D01*
X166592857Y-117714761D01*
X166450000Y-117762380D01*
X166211904Y-117762380D01*
X167640476Y-117095714D02*
X167640476Y-117762380D01*
X167402380Y-116714761D02*
X167164285Y-117429047D01*
X167783333Y-117429047D01*
%TO.C,D3*%
X157871904Y-118802380D02*
X157871904Y-117802380D01*
X158110000Y-117802380D01*
X158252857Y-117850000D01*
X158348095Y-117945238D01*
X158395714Y-118040476D01*
X158443333Y-118230952D01*
X158443333Y-118373809D01*
X158395714Y-118564285D01*
X158348095Y-118659523D01*
X158252857Y-118754761D01*
X158110000Y-118802380D01*
X157871904Y-118802380D01*
X158776666Y-117802380D02*
X159395714Y-117802380D01*
X159062380Y-118183333D01*
X159205238Y-118183333D01*
X159300476Y-118230952D01*
X159348095Y-118278571D01*
X159395714Y-118373809D01*
X159395714Y-118611904D01*
X159348095Y-118707142D01*
X159300476Y-118754761D01*
X159205238Y-118802380D01*
X158919523Y-118802380D01*
X158824285Y-118754761D01*
X158776666Y-118707142D01*
%TO.C,C2*%
X128823333Y-75507142D02*
X128775714Y-75554761D01*
X128632857Y-75602380D01*
X128537619Y-75602380D01*
X128394761Y-75554761D01*
X128299523Y-75459523D01*
X128251904Y-75364285D01*
X128204285Y-75173809D01*
X128204285Y-75030952D01*
X128251904Y-74840476D01*
X128299523Y-74745238D01*
X128394761Y-74650000D01*
X128537619Y-74602380D01*
X128632857Y-74602380D01*
X128775714Y-74650000D01*
X128823333Y-74697619D01*
X129204285Y-74697619D02*
X129251904Y-74650000D01*
X129347142Y-74602380D01*
X129585238Y-74602380D01*
X129680476Y-74650000D01*
X129728095Y-74697619D01*
X129775714Y-74792857D01*
X129775714Y-74888095D01*
X129728095Y-75030952D01*
X129156666Y-75602380D01*
X129775714Y-75602380D01*
%TO.C,D2*%
X134821904Y-64312380D02*
X134821904Y-63312380D01*
X135060000Y-63312380D01*
X135202857Y-63360000D01*
X135298095Y-63455238D01*
X135345714Y-63550476D01*
X135393333Y-63740952D01*
X135393333Y-63883809D01*
X135345714Y-64074285D01*
X135298095Y-64169523D01*
X135202857Y-64264761D01*
X135060000Y-64312380D01*
X134821904Y-64312380D01*
X135774285Y-63407619D02*
X135821904Y-63360000D01*
X135917142Y-63312380D01*
X136155238Y-63312380D01*
X136250476Y-63360000D01*
X136298095Y-63407619D01*
X136345714Y-63502857D01*
X136345714Y-63598095D01*
X136298095Y-63740952D01*
X135726666Y-64312380D01*
X136345714Y-64312380D01*
%TO.C,R8*%
X209803333Y-104372380D02*
X209470000Y-103896190D01*
X209231904Y-104372380D02*
X209231904Y-103372380D01*
X209612857Y-103372380D01*
X209708095Y-103420000D01*
X209755714Y-103467619D01*
X209803333Y-103562857D01*
X209803333Y-103705714D01*
X209755714Y-103800952D01*
X209708095Y-103848571D01*
X209612857Y-103896190D01*
X209231904Y-103896190D01*
X210374761Y-103800952D02*
X210279523Y-103753333D01*
X210231904Y-103705714D01*
X210184285Y-103610476D01*
X210184285Y-103562857D01*
X210231904Y-103467619D01*
X210279523Y-103420000D01*
X210374761Y-103372380D01*
X210565238Y-103372380D01*
X210660476Y-103420000D01*
X210708095Y-103467619D01*
X210755714Y-103562857D01*
X210755714Y-103610476D01*
X210708095Y-103705714D01*
X210660476Y-103753333D01*
X210565238Y-103800952D01*
X210374761Y-103800952D01*
X210279523Y-103848571D01*
X210231904Y-103896190D01*
X210184285Y-103991428D01*
X210184285Y-104181904D01*
X210231904Y-104277142D01*
X210279523Y-104324761D01*
X210374761Y-104372380D01*
X210565238Y-104372380D01*
X210660476Y-104324761D01*
X210708095Y-104277142D01*
X210755714Y-104181904D01*
X210755714Y-103991428D01*
X210708095Y-103896190D01*
X210660476Y-103848571D01*
X210565238Y-103800952D01*
%TO.C,D6*%
X207251904Y-112122380D02*
X207251904Y-111122380D01*
X207490000Y-111122380D01*
X207632857Y-111170000D01*
X207728095Y-111265238D01*
X207775714Y-111360476D01*
X207823333Y-111550952D01*
X207823333Y-111693809D01*
X207775714Y-111884285D01*
X207728095Y-111979523D01*
X207632857Y-112074761D01*
X207490000Y-112122380D01*
X207251904Y-112122380D01*
X208680476Y-111122380D02*
X208490000Y-111122380D01*
X208394761Y-111170000D01*
X208347142Y-111217619D01*
X208251904Y-111360476D01*
X208204285Y-111550952D01*
X208204285Y-111931904D01*
X208251904Y-112027142D01*
X208299523Y-112074761D01*
X208394761Y-112122380D01*
X208585238Y-112122380D01*
X208680476Y-112074761D01*
X208728095Y-112027142D01*
X208775714Y-111931904D01*
X208775714Y-111693809D01*
X208728095Y-111598571D01*
X208680476Y-111550952D01*
X208585238Y-111503333D01*
X208394761Y-111503333D01*
X208299523Y-111550952D01*
X208251904Y-111598571D01*
X208204285Y-111693809D01*
%TO.C,D1*%
X112001904Y-64252380D02*
X112001904Y-63252380D01*
X112240000Y-63252380D01*
X112382857Y-63300000D01*
X112478095Y-63395238D01*
X112525714Y-63490476D01*
X112573333Y-63680952D01*
X112573333Y-63823809D01*
X112525714Y-64014285D01*
X112478095Y-64109523D01*
X112382857Y-64204761D01*
X112240000Y-64252380D01*
X112001904Y-64252380D01*
X113525714Y-64252380D02*
X112954285Y-64252380D01*
X113240000Y-64252380D02*
X113240000Y-63252380D01*
X113144761Y-63395238D01*
X113049523Y-63490476D01*
X112954285Y-63538095D01*
%TO.C,R5*%
X156413333Y-109812380D02*
X156080000Y-109336190D01*
X155841904Y-109812380D02*
X155841904Y-108812380D01*
X156222857Y-108812380D01*
X156318095Y-108860000D01*
X156365714Y-108907619D01*
X156413333Y-109002857D01*
X156413333Y-109145714D01*
X156365714Y-109240952D01*
X156318095Y-109288571D01*
X156222857Y-109336190D01*
X155841904Y-109336190D01*
X157318095Y-108812380D02*
X156841904Y-108812380D01*
X156794285Y-109288571D01*
X156841904Y-109240952D01*
X156937142Y-109193333D01*
X157175238Y-109193333D01*
X157270476Y-109240952D01*
X157318095Y-109288571D01*
X157365714Y-109383809D01*
X157365714Y-109621904D01*
X157318095Y-109717142D01*
X157270476Y-109764761D01*
X157175238Y-109812380D01*
X156937142Y-109812380D01*
X156841904Y-109764761D01*
X156794285Y-109717142D01*
%TO.C,C1*%
X117153333Y-75837142D02*
X117105714Y-75884761D01*
X116962857Y-75932380D01*
X116867619Y-75932380D01*
X116724761Y-75884761D01*
X116629523Y-75789523D01*
X116581904Y-75694285D01*
X116534285Y-75503809D01*
X116534285Y-75360952D01*
X116581904Y-75170476D01*
X116629523Y-75075238D01*
X116724761Y-74980000D01*
X116867619Y-74932380D01*
X116962857Y-74932380D01*
X117105714Y-74980000D01*
X117153333Y-75027619D01*
X118105714Y-75932380D02*
X117534285Y-75932380D01*
X117820000Y-75932380D02*
X117820000Y-74932380D01*
X117724761Y-75075238D01*
X117629523Y-75170476D01*
X117534285Y-75218095D01*
%TO.C,Q1*%
X123384761Y-75667619D02*
X123289523Y-75620000D01*
X123194285Y-75524761D01*
X123051428Y-75381904D01*
X122956190Y-75334285D01*
X122860952Y-75334285D01*
X122908571Y-75572380D02*
X122813333Y-75524761D01*
X122718095Y-75429523D01*
X122670476Y-75239047D01*
X122670476Y-74905714D01*
X122718095Y-74715238D01*
X122813333Y-74620000D01*
X122908571Y-74572380D01*
X123099047Y-74572380D01*
X123194285Y-74620000D01*
X123289523Y-74715238D01*
X123337142Y-74905714D01*
X123337142Y-75239047D01*
X123289523Y-75429523D01*
X123194285Y-75524761D01*
X123099047Y-75572380D01*
X122908571Y-75572380D01*
X124289523Y-75572380D02*
X123718095Y-75572380D01*
X124003809Y-75572380D02*
X124003809Y-74572380D01*
X123908571Y-74715238D01*
X123813333Y-74810476D01*
X123718095Y-74858095D01*
%TO.C,D5*%
X201001904Y-112962380D02*
X201001904Y-111962380D01*
X201240000Y-111962380D01*
X201382857Y-112010000D01*
X201478095Y-112105238D01*
X201525714Y-112200476D01*
X201573333Y-112390952D01*
X201573333Y-112533809D01*
X201525714Y-112724285D01*
X201478095Y-112819523D01*
X201382857Y-112914761D01*
X201240000Y-112962380D01*
X201001904Y-112962380D01*
X202478095Y-111962380D02*
X202001904Y-111962380D01*
X201954285Y-112438571D01*
X202001904Y-112390952D01*
X202097142Y-112343333D01*
X202335238Y-112343333D01*
X202430476Y-112390952D01*
X202478095Y-112438571D01*
X202525714Y-112533809D01*
X202525714Y-112771904D01*
X202478095Y-112867142D01*
X202430476Y-112914761D01*
X202335238Y-112962380D01*
X202097142Y-112962380D01*
X202001904Y-112914761D01*
X201954285Y-112867142D01*
%TO.C,R3*%
X120233333Y-68242380D02*
X119900000Y-67766190D01*
X119661904Y-68242380D02*
X119661904Y-67242380D01*
X120042857Y-67242380D01*
X120138095Y-67290000D01*
X120185714Y-67337619D01*
X120233333Y-67432857D01*
X120233333Y-67575714D01*
X120185714Y-67670952D01*
X120138095Y-67718571D01*
X120042857Y-67766190D01*
X119661904Y-67766190D01*
X120566666Y-67242380D02*
X121185714Y-67242380D01*
X120852380Y-67623333D01*
X120995238Y-67623333D01*
X121090476Y-67670952D01*
X121138095Y-67718571D01*
X121185714Y-67813809D01*
X121185714Y-68051904D01*
X121138095Y-68147142D01*
X121090476Y-68194761D01*
X120995238Y-68242380D01*
X120709523Y-68242380D01*
X120614285Y-68194761D01*
X120566666Y-68147142D01*
%TO.C,BT1*%
X86687941Y-89437338D02*
X86830798Y-89484957D01*
X86878417Y-89532576D01*
X86926036Y-89627814D01*
X86926036Y-89770671D01*
X86878417Y-89865909D01*
X86830798Y-89913528D01*
X86735560Y-89961147D01*
X86354608Y-89961147D01*
X86354608Y-88961147D01*
X86687941Y-88961147D01*
X86783179Y-89008767D01*
X86830798Y-89056386D01*
X86878417Y-89151624D01*
X86878417Y-89246862D01*
X86830798Y-89342100D01*
X86783179Y-89389719D01*
X86687941Y-89437338D01*
X86354608Y-89437338D01*
X87211751Y-88961147D02*
X87783179Y-88961147D01*
X87497465Y-89961147D02*
X87497465Y-88961147D01*
X88640322Y-89961147D02*
X88068894Y-89961147D01*
X88354608Y-89961147D02*
X88354608Y-88961147D01*
X88259370Y-89104005D01*
X88164132Y-89199243D01*
X88068894Y-89246862D01*
X95509251Y-98880195D02*
X96271156Y-98880195D01*
X95509251Y-86000195D02*
X96271156Y-86000195D01*
X95890203Y-86381147D02*
X95890203Y-85619243D01*
D12*
%TO.C,R2*%
X126719064Y-70331000D02*
X126264936Y-70331000D01*
X126719064Y-68861000D02*
X126264936Y-68861000D01*
%TO.C,R1*%
X115019064Y-68861000D02*
X114564936Y-68861000D01*
X115019064Y-70331000D02*
X114564936Y-70331000D01*
%TO.C,R4*%
X131344936Y-68861000D02*
X131799064Y-68861000D01*
X131344936Y-70331000D02*
X131799064Y-70331000D01*
%TO.C,SW1*%
X153310000Y-86597500D02*
X153310000Y-87522500D01*
X153310000Y-90220000D02*
X153310000Y-89090000D01*
X149470000Y-82505000D02*
X149470000Y-81381250D01*
X153310000Y-84081250D02*
X153310000Y-85018750D01*
X149470000Y-90220000D02*
X153310000Y-90220000D01*
X149470000Y-84080000D02*
X149470000Y-85010000D01*
X149470000Y-89070000D02*
X149470000Y-90220000D01*
X153315000Y-81378750D02*
X153315000Y-82480000D01*
X149470000Y-86610000D02*
X149470000Y-87540000D01*
X149470000Y-81381250D02*
X153315000Y-81378750D01*
%TO.C,R7*%
X202375000Y-104017064D02*
X202375000Y-103562936D01*
X200905000Y-104017064D02*
X200905000Y-103562936D01*
%TO.C,R6*%
X167815000Y-109427064D02*
X167815000Y-108972936D01*
X166345000Y-109427064D02*
X166345000Y-108972936D01*
%TO.C,D4*%
X165620000Y-116505000D02*
X168530000Y-116505000D01*
X168530000Y-116505000D02*
X168540000Y-112155000D01*
X165620000Y-112155000D02*
X165620000Y-116505000D01*
%TO.C,D3*%
X157110000Y-113215000D02*
X157110000Y-117565000D01*
X160020000Y-117565000D02*
X160030000Y-113215000D01*
X157110000Y-117565000D02*
X160020000Y-117565000D01*
%TO.C,C2*%
X128297000Y-72361248D02*
X128297000Y-72883752D01*
X129767000Y-72361248D02*
X129767000Y-72883752D01*
%TO.C,D2*%
X138150000Y-64680000D02*
X133800000Y-64670000D01*
X138150000Y-67590000D02*
X138150000Y-64680000D01*
X133800000Y-67590000D02*
X138150000Y-67590000D01*
%TO.C,R8*%
X207305000Y-104157064D02*
X207305000Y-103702936D01*
X208775000Y-104157064D02*
X208775000Y-103702936D01*
%TO.C,D6*%
X206570000Y-106520000D02*
X206570000Y-110870000D01*
X209480000Y-110870000D02*
X209490000Y-106520000D01*
X206570000Y-110870000D02*
X209480000Y-110870000D01*
%TO.C,D1*%
X110235000Y-67500000D02*
X114585000Y-67510000D01*
X114585000Y-64590000D02*
X110235000Y-64590000D01*
X110235000Y-64590000D02*
X110235000Y-67500000D01*
%TO.C,R5*%
X159305000Y-109627064D02*
X159305000Y-109172936D01*
X157835000Y-109627064D02*
X157835000Y-109172936D01*
%TO.C,C1*%
X116613000Y-72382748D02*
X116613000Y-72905252D01*
X118083000Y-72382748D02*
X118083000Y-72905252D01*
%TO.C,Q1*%
X124144000Y-71992000D02*
X122244000Y-71992000D01*
X122744000Y-74312000D02*
X124144000Y-74312000D01*
%TO.C,D5*%
X200160000Y-107265000D02*
X200160000Y-111615000D01*
X203070000Y-111615000D02*
X203080000Y-107265000D01*
X200160000Y-111615000D02*
X203070000Y-111615000D01*
%TO.C,R3*%
X120168936Y-70331000D02*
X120623064Y-70331000D01*
X120168936Y-68861000D02*
X120623064Y-68861000D01*
%TO.C,BT1*%
X89173656Y-80378767D02*
X92173656Y-80378767D01*
X95113656Y-105308767D02*
X89513656Y-105308767D01*
X95113656Y-108208767D02*
X95113656Y-105308767D01*
X89513656Y-105308767D02*
X89513656Y-100628767D01*
X144673656Y-108208767D02*
X144673656Y-76618767D01*
X89513656Y-88578767D02*
X89513656Y-96928767D01*
X89513656Y-80718767D02*
X89513656Y-83278767D01*
X95113656Y-80718767D02*
X89513656Y-80718767D01*
X144673656Y-76618767D02*
X95113656Y-76618767D01*
X95113656Y-76618767D02*
X95113656Y-80718767D01*
X89173656Y-80378767D02*
X89173656Y-83378767D01*
X144673656Y-108208767D02*
X95113656Y-108208767D01*
%TD*%
M02*
